<svg width="40" height="40" viewBox="0 0 40 40" fill="none" xmlns="http://www.w3.org/2000/svg">
<rect width="40" height="40" rx="20" fill="url(#paint0_linear_2069_17110)"/>
<path d="M20 19.9751C18.9 19.9751 18 19.6251 17.3 18.9251C16.6 18.2251 16.25 17.3251 16.25 16.2251C16.25 15.1251 16.6 14.2251 17.3 13.5251C18 12.8251 18.9 12.4751 20 12.4751C21.1 12.4751 22 12.8251 22.7 13.5251C23.4 14.2251 23.75 15.1251 23.75 16.2251C23.75 17.3251 23.4 18.2251 22.7 18.9251C22 19.6251 21.1 19.9751 20 19.9751ZM12 28.0001V25.6501C12 25.0168 12.1583 24.4751 12.475 24.0251C12.7917 23.5751 13.2 23.2334 13.7 23.0001C14.8167 22.5001 15.8875 22.1251 16.9125 21.8751C17.9375 21.6251 18.9667 21.5001 20 21.5001C21.0333 21.5001 22.0583 21.6293 23.075 21.8876C24.0917 22.1459 25.1583 22.5168 26.275 23.0001C26.7917 23.2334 27.2083 23.5751 27.525 24.0251C27.8417 24.4751 28 25.0168 28 25.6501V28.0001H12Z" fill="white"/>
<defs>
<linearGradient id="paint0_linear_2069_17110" x1="40" y1="40" x2="-0.811892" y2="39.1537" gradientUnits="userSpaceOnUse">
<stop stop-color="#4433F1"/>
<stop offset="1" stop-color="#628EFF"/>
</linearGradient>
</defs>
</svg>
