<svg width="40" height="40" viewBox="0 0 40 40" fill="none" xmlns="http://www.w3.org/2000/svg">
<rect width="40" height="40" rx="20" fill="url(#paint0_linear_2069_17122)"/>
<path d="M20 30C18.6167 30 17.3167 29.7375 16.1 29.2125C14.8833 28.6875 13.825 27.975 12.925 27.075C12.025 26.175 11.3125 25.1167 10.7875 23.9C10.2625 22.6833 10 21.3833 10 20C10 18.6167 10.2625 17.3167 10.7875 16.1C11.3125 14.8833 12.025 13.825 12.925 12.925C13.825 12.025 14.8833 11.3125 16.1 10.7875C17.3167 10.2625 18.6167 10 20 10C21.3833 10 22.6833 10.2625 23.9 10.7875C25.1167 11.3125 26.175 12.025 27.075 12.925C27.975 13.825 28.6875 14.8833 29.2125 16.1C29.7375 17.3167 30 18.6167 30 20C30 21.3833 29.7375 22.6833 29.2125 23.9C28.6875 25.1167 27.975 26.175 27.075 27.075C26.175 27.975 25.1167 28.6875 23.9 29.2125C22.6833 29.7375 21.3833 30 20 30ZM16.975 28L18.55 24.25C17.9167 24.0333 17.3542 23.6875 16.8625 23.2125C16.3708 22.7375 16 22.1583 15.75 21.475L12 22.975C12.5167 24.1583 13.2 25.1833 14.05 26.05C14.9 26.9167 15.875 27.5667 16.975 28ZM15.725 18.55C15.9917 17.8667 16.3667 17.2833 16.85 16.8C17.3333 16.3167 17.8917 15.9667 18.525 15.75L17.025 12C15.775 12.5167 14.7167 13.2125 13.85 14.0875C12.9833 14.9625 12.3667 15.95 12 17.05L15.725 18.55ZM20 23C20.8333 23 21.5417 22.7083 22.125 22.125C22.7083 21.5417 23 20.8333 23 20C23 19.1667 22.7083 18.4583 22.125 17.875C21.5417 17.2917 20.8333 17 20 17C19.1667 17 18.4583 17.2917 17.875 17.875C17.2917 18.4583 17 19.1667 17 20C17 20.8333 17.2917 21.5417 17.875 22.125C18.4583 22.7083 19.1667 23 20 23ZM23.025 28C24.175 27.5333 25.175 26.8708 26.025 26.0125C26.875 25.1542 27.5333 24.1583 28 23.025L24.25 21.475C24 22.175 23.6292 22.7625 23.1375 23.2375C22.6458 23.7125 22.0833 24.05 21.45 24.25L23.025 28ZM24.25 18.525L28 16.975C27.5333 15.8417 26.8708 14.8458 26.0125 13.9875C25.1542 13.1292 24.1583 12.4667 23.025 12L21.5 15.75C22.1333 15.9667 22.6833 16.3125 23.15 16.7875C23.6167 17.2625 23.9833 17.8417 24.25 18.525Z" fill="white"/>
<defs>
<linearGradient id="paint0_linear_2069_17122" x1="40" y1="40" x2="-0.811892" y2="39.1537" gradientUnits="userSpaceOnUse">
<stop stop-color="#4433F1"/>
<stop offset="1" stop-color="#628EFF"/>
</linearGradient>
</defs>
</svg>
